<?xml version="1.0" standalone="no"?>
<!DOCTYPE svg PUBLIC "-//W3C//DTD SVG 20010904//EN"
 "http://www.w3.org/TR/2001/REC-SVG-20010904/DTD/svg10.dtd">
<svg version="1.0" xmlns="http://www.w3.org/2000/svg"
 width="378.000000pt" height="210.000000pt" viewBox="0 0 378.000000 210.000000"
 preserveAspectRatio="xMidYMid meet">

<g transform="translate(0.000000,210.000000) scale(0.100000,-0.100000)"
fill="#000000" stroke="none">
<path d="M1341 1800 c-13 -11 -19 -20 -14 -20 6 0 18 9 28 20 23 25 17 25 -14
0z"/>
<path d="M1243 1719 c-63 -54 -148 -149 -201 -223 -50 -69 -30 -56 31 22 74
92 133 153 142 144 3 -4 5 -2 3 4 -1 6 19 32 47 57 67 63 51 60 -22 -4z"/>
<path d="M967 1383 c-38 -61 -39 -63 -29 -63 5 0 15 13 22 30 7 16 17 27 23
23 6 -3 7 -1 3 6 -4 6 -2 18 4 26 7 8 10 15 6 15 -3 0 -16 -17 -29 -37z"/>
<path d="M905 1269 c-4 -6 -5 -12 -2 -15 2 -3 7 2 10 11 7 17 1 20 -8 4z"/>
<path d="M856 1175 c-9 -26 -7 -32 5 -12 6 10 9 21 6 23 -2 3 -7 -2 -11 -11z"/>
<path d="M140 675 l0 -225 40 0 40 0 0 225 0 225 -40 0 -40 0 0 -225z"/>
<path d="M648 761 l-3 -139 -174 134 c-95 74 -177 134 -182 134 -5 0 -9 -97
-9 -221 l0 -220 43 3 42 3 0 130 c0 79 4 131 10 132 6 1 85 -56 177 -128 162
-125 197 -146 184 -113 -3 9 -6 108 -6 220 l0 204 -40 0 -39 0 -3 -139z"/>
<path d="M858 884 c-52 -27 -58 -56 -58 -254 l0 -180 40 0 40 0 0 105 0 105
145 0 145 0 0 40 0 40 -145 0 -145 0 0 28 c0 49 10 52 197 52 l173 0 0 40 0
40 -182 0 c-142 -1 -189 -4 -210 -16z"/>
<path d="M1364 876 c-81 -38 -124 -107 -124 -200 1 -161 166 -270 310 -205 56
25 86 53 111 101 44 85 33 176 -29 249 -68 79 -170 101 -268 55z m163 -72 c89
-43 104 -166 29 -232 -46 -40 -94 -48 -150 -23 -54 23 -78 57 -83 119 -10 107
104 183 204 136z"/>
<path d="M1690 860 l0 -39 93 -3 92 -3 3 -182 2 -183 40 0 40 0 0 185 0 185
90 0 90 0 0 40 0 40 -225 0 -225 0 0 -40z"/>
<path d="M2263 881 c-52 -32 -58 -52 -58 -201 0 -221 14 -232 277 -228 l173 3
3 38 3 37 -166 0 c-96 0 -175 4 -186 10 -15 9 -19 22 -19 65 l0 55 146 0 145
0 -3 38 -3 37 -142 3 -143 3 0 28 c0 16 6 33 13 40 8 6 79 12 183 13 l169 3 0
35 0 35 -180 3 c-164 2 -183 0 -212 -17z"/>
<path d="M2799 873 c-74 -38 -111 -93 -117 -173 -6 -80 16 -137 72 -188 57
-53 95 -62 249 -62 l127 0 0 39 0 39 -137 4 c-125 3 -141 5 -171 26 -87 62
-81 186 10 242 29 17 51 20 166 20 l132 0 0 40 0 40 -138 0 c-131 0 -141 -1
-193 -27z"/>
<path d="M3190 675 l0 -225 40 0 39 0 3 103 3 102 143 3 142 3 0 -106 0 -105
40 0 40 0 0 225 0 225 -40 0 -40 0 0 -80 0 -80 -145 0 -145 0 0 80 0 80 -40 0
-40 0 0 -225z"/>
<path d="M1041 337 c-20 -37 -11 -81 17 -85 46 -7 64 31 40 83 -14 31 -41 32
-57 2z m47 -39 c-5 -34 -38 -37 -38 -4 0 20 5 26 21 26 15 0 20 -5 17 -22z"/>
<path d="M284 325 c-7 -18 3 -35 22 -35 23 0 16 -18 -8 -23 -21 -3 -22 -4 -4
-12 22 -9 51 5 51 26 0 7 -11 19 -25 26 -24 12 -25 13 -2 13 12 0 22 5 22 10
0 16 -50 12 -56 -5z"/>
<path d="M434 326 c-3 -8 -4 -27 -2 -43 2 -23 8 -29 35 -31 27 -3 33 1 39 22
11 43 2 61 -34 64 -21 2 -34 -2 -38 -12z m54 -28 c-5 -34 -38 -37 -38 -4 0 20
5 26 21 26 15 0 20 -5 17 -22z"/>
<path d="M592 298 c3 -39 6 -43 31 -46 15 -2 27 1 27 7 0 6 -9 11 -20 11 -16
0 -20 7 -20 35 0 19 -5 35 -11 35 -6 0 -9 -17 -7 -42z"/>
<path d="M730 301 c0 -31 4 -41 20 -46 30 -9 50 12 50 51 0 43 -18 45 -22 2
-4 -46 -28 -49 -28 -4 0 20 -4 36 -10 36 -5 0 -10 -18 -10 -39z"/>
<path d="M887 333 c-14 -13 -6 -59 14 -82 17 -21 22 -22 30 -10 14 22 11 29
-11 29 -15 0 -20 7 -20 25 0 18 5 25 20 25 11 0 20 5 20 10 0 11 -43 14 -53 3z"/>
<path d="M1194 326 c-3 -8 -4 -27 -2 -43 2 -22 9 -29 31 -31 15 -2 27 1 27 7
0 6 -9 11 -20 11 -11 0 -20 5 -20 10 0 6 9 10 20 10 27 0 25 18 -2 23 l-23 4
23 2 c12 0 22 6 22 11 0 15 -50 12 -56 -4z"/>
<path d="M1347 333 c-15 -15 -7 -43 13 -43 11 0 20 -4 20 -10 0 -5 -9 -10 -20
-10 -11 0 -20 -5 -20 -11 0 -6 12 -9 28 -7 37 4 44 44 10 57 l-23 10 23 0 c12
1 22 6 22 11 0 11 -43 14 -53 3z"/>
<path d="M1602 298 c3 -39 6 -43 31 -46 15 -2 27 1 27 7 0 6 -9 11 -20 11 -27
0 -25 18 3 23 22 4 22 4 -3 15 -24 10 -24 11 -2 11 34 1 26 21 -9 21 -29 0
-30 -1 -27 -42z"/>
<path d="M1746 324 c-15 -39 2 -92 20 -63 5 8 9 7 14 -2 7 -10 11 -10 24 0 13
11 16 11 16 0 0 -9 3 -10 11 -2 17 17 7 77 -13 81 -11 2 -18 -3 -18 -12 0 -9
-4 -16 -10 -16 -5 0 -10 7 -10 15 0 20 -26 19 -34 -1z"/>
<path d="M2030 330 c0 -5 5 -10 10 -10 6 0 10 -13 10 -29 0 -17 5 -33 10 -36
6 -4 10 8 10 29 0 20 5 36 10 36 6 0 10 5 10 10 0 6 -13 10 -30 10 -16 0 -30
-4 -30 -10z"/>
<path d="M2177 308 c-2 -18 0 -39 5 -45 12 -15 44 -17 53 -3 3 6 -3 10 -14 10
-12 0 -21 5 -21 10 0 6 7 10 15 10 21 0 19 20 -2 21 -14 0 -13 2 5 9 30 13 28
20 -7 20 -25 0 -29 -4 -34 -32z"/>
<path d="M2327 333 c-11 -11 -8 -58 5 -71 15 -15 48 -16 48 -2 0 6 -9 10 -20
10 -15 0 -20 7 -20 25 0 18 5 25 20 25 11 0 20 5 20 10 0 11 -43 14 -53 3z"/>
<path d="M2470 293 c1 -41 2 -46 13 -31 12 15 14 15 23 0 16 -25 34 -5 34 39
0 44 -20 55 -21 12 l-1 -28 -10 28 c-16 45 -38 34 -38 -20z"/>
<path d="M2624 314 c-9 -36 7 -59 42 -59 27 0 29 3 29 40 0 38 -2 40 -32 43
-28 3 -33 0 -39 -24z m56 -20 c0 -33 -33 -30 -38 4 -3 17 2 22 17 22 16 0 21
-6 21 -26z"/>
<path d="M2788 334 c-12 -12 -9 -59 4 -72 14 -14 48 -16 48 -3 0 5 -9 11 -19
14 -13 3 -21 15 -23 37 -2 17 -6 28 -10 24z"/>
<path d="M2924 314 c-9 -36 7 -59 42 -59 27 0 29 3 29 40 0 38 -2 40 -32 43
-28 3 -33 0 -39 -24z m56 -20 c0 -33 -33 -30 -38 4 -3 17 2 22 17 22 16 0 21
-6 21 -26z"/>
<path d="M3084 313 c-9 -34 7 -58 37 -58 19 0 25 6 27 29 3 25 1 28 -17 23
-12 -3 -21 -1 -21 4 0 5 6 9 14 9 8 0 18 5 21 10 4 6 -6 10 -24 10 -25 0 -32
-5 -37 -27z m46 -33 c0 -5 -4 -10 -10 -10 -5 0 -10 5 -10 10 0 6 5 10 10 10 6
0 10 -4 10 -10z"/>
<path d="M3240 295 c0 -25 5 -45 10 -45 6 0 10 20 10 45 0 25 -4 45 -10 45 -5
0 -10 -20 -10 -45z"/>
<path d="M3359 313 c-5 -16 -12 -33 -14 -40 -7 -19 11 -24 25 -8 11 14 15 14
31 -1 22 -20 23 -15 7 37 -13 46 -34 50 -49 12z"/>
</g>
</svg>
